<svg xmlns="http://www.w3.org/2000/svg" shape-rendering="geometricPrecision" text-rendering="geometricPrecision" image-rendering="optimizeQuality" fill-rule="evenodd" clip-rule="evenodd" viewBox="0 0 325 511.61"><path fill-rule="nonzero" d="M0 511.61V0h134.56c55.05 0 96.66 11.15 124.84 33.58 28.31 22.43 42.33 54.93 42.33 97.62 0 30.94-7.79 56.61-23.5 76.99-15.71 20.39-37.78 33.46-66.44 39.1 32.38 4.2 59.37 18.11 80.83 41.97 21.59 23.75 32.38 50.97 32.38 81.55 0 43.54-14.15 77.95-42.33 103.02-28.3 25.19-67.52 37.78-117.89 37.78H0zm18.95-252.57V492.9h147.87c43.41 0 77.35-10.67 102.17-32.14 24.71-21.47 37.06-51.21 37.06-89.23 0-32.26-11.99-59-35.86-79.99-23.86-20.99-55.88-31.78-95.94-32.5H18.95zm0-18.71h122.68c46.54 0 81.67-8.99 105.3-26.98 23.74-17.99 35.5-45.81 35.5-83.71 0-72.79-47.85-109.73-143.67-110.93H18.95v221.62z"/></svg>