<svg width="16" height="16" viewBox="0 0 16 16" fill="none" xmlns="http://www.w3.org/2000/svg">
<path d="M7.66581 2.91648C7.66581 2.49653 7.49899 2.09379 7.20204 1.79685C6.9051 1.49991 6.50236 1.33308 6.08242 1.33308C5.66247 1.33308 5.25973 1.49991 4.96279 1.79685C4.66584 2.09379 4.49902 2.49653 4.49902 2.91648L4.49902 4.81655" stroke="#FFAD0D" stroke-linecap="round" stroke-linejoin="round"/>
<path d="M10.8321 4.18319L10.8321 2.91648C10.8321 2.49653 10.6652 2.09379 10.3683 1.79685C10.0714 1.49991 9.66862 1.33308 9.24868 1.33308C8.82873 1.33308 8.42599 1.49991 8.12905 1.79685C7.8321 2.09379 7.66528 2.49653 7.66528 2.91648L7.66528 5.4499" stroke="#FFAD0D" stroke-linecap="round" stroke-linejoin="round"/>
<path d="M4.49979 7.34976L4.49979 4.81633L2.9164 4.81633C2.4971 4.81841 2.09557 4.9859 1.79907 5.28239C1.50258 5.57889 1.33509 5.98042 1.33301 6.39972L1.33301 7.66643C1.33301 9.3462 2.00029 10.9572 3.18807 12.1449C4.37584 13.3327 5.98681 14 7.66658 14C9.34634 14 10.9573 13.3327 12.1451 12.1449C13.3329 10.9572 14.0001 9.3462 14.0001 7.66643L14.0001 4.18297C14.0001 3.76303 13.8333 3.36029 13.5364 3.06334C13.2394 2.7664 12.8367 2.59958 12.4168 2.59958C11.9968 2.59958 11.5941 2.7664 11.2971 3.06334C11.0002 3.36029 10.8334 3.76303 10.8334 4.18297L10.8334 5.44968" stroke="#FFAD0D" stroke-linecap="round" stroke-linejoin="round"/>
</svg>
